<svg xmlns="http://www.w3.org/2000/svg" viewBox="0 0 520 128" preserveAspectRatio="xMidYMid slice"><clipPath id="c0"><circle cx="64" cy="64" r="58"/></clipPath><g clip-path="url(#c0)"><rect x="4" y="0" width="120" height="128" fill="#dfe7f5"/><path d="M14,128 Q18,92 64,90 Q110,92 114,128Z" fill="#2563eb"/><rect x="56" y="76" width="16" height="18" fill="#5c3a24"/><circle cx="64" cy="58" r="26" fill="#5c3a24"/><path d="M38,56 a26,26 0 0 1 52,0 l-8,-6 -36,0Z" fill="#1b1410"/><path d="M55,66 q9,7 18,0" stroke="#3a2418" stroke-width="2.5" fill="none" stroke-linecap="round"/></g><circle cx="64" cy="64" r="58" fill="none" stroke="#fff" stroke-width="6"/><clipPath id="c1"><circle cx="192" cy="64" r="58"/></clipPath><g clip-path="url(#c1)"><rect x="132" y="0" width="120" height="128" fill="#dfe7f5"/><path d="M142,128 Q146,92 192,90 Q238,92 242,128Z" fill="#ffd21f"/><rect x="184" y="76" width="16" height="18" fill="#7a4a2e"/><circle cx="192" cy="58" r="26" fill="#7a4a2e"/><path d="M166,56 a26,26 0 0 1 52,0 l-8,-6 -36,0Z" fill="#1b1410"/><path d="M183,66 q9,7 18,0" stroke="#3a2418" stroke-width="2.5" fill="none" stroke-linecap="round"/></g><circle cx="192" cy="64" r="58" fill="none" stroke="#fff" stroke-width="6"/><clipPath id="c2"><circle cx="320" cy="64" r="58"/></clipPath><g clip-path="url(#c2)"><rect x="260" y="0" width="120" height="128" fill="#dfe7f5"/><path d="M270,128 Q274,92 320,90 Q366,92 370,128Z" fill="#e04848"/><rect x="312" y="76" width="16" height="18" fill="#6b4029"/><circle cx="320" cy="58" r="26" fill="#6b4029"/><path d="M294,56 a26,26 0 0 1 52,0 l-8,-6 -36,0Z" fill="#1b1410"/><path d="M311,66 q9,7 18,0" stroke="#3a2418" stroke-width="2.5" fill="none" stroke-linecap="round"/></g><circle cx="320" cy="64" r="58" fill="none" stroke="#fff" stroke-width="6"/><clipPath id="c3"><circle cx="448" cy="64" r="58"/></clipPath><g clip-path="url(#c3)"><rect x="388" y="0" width="120" height="128" fill="#dfe7f5"/><path d="M398,128 Q402,92 448,90 Q494,92 498,128Z" fill="#16a34a"/><rect x="440" y="76" width="16" height="18" fill="#8d5a3b"/><circle cx="448" cy="58" r="26" fill="#8d5a3b"/><path d="M422,56 a26,26 0 0 1 52,0 l-8,-6 -36,0Z" fill="#1b1410"/><path d="M439,66 q9,7 18,0" stroke="#3a2418" stroke-width="2.5" fill="none" stroke-linecap="round"/></g><circle cx="448" cy="64" r="58" fill="none" stroke="#fff" stroke-width="6"/></svg>