<svg xmlns="http://www.w3.org/2000/svg" viewBox="0 0 400 556" preserveAspectRatio="xMidYMid slice"><defs><linearGradient id="g0" x2="0" y2="1"><stop offset="0" stop-color="#4aa8ea"/><stop offset="0.6" stop-color="#a9dcfb"/><stop offset="1" stop-color="#e6f6ff"/></linearGradient><linearGradient id="g1" x2="0" y2="1"><stop offset="0" stop-color="#5aa64a"/><stop offset="1" stop-color="#79c25f"/></linearGradient></defs><rect width="400" height="302" fill="url(#g0)"/><g fill="#fff" opacity="0.95"><ellipse cx="260" cy="90" rx="46" ry="14"/><circle cx="244" cy="80" r="16"/><circle cx="270" cy="74" r="21"/></g><path d="M0,300 Q13,276.6 26,300 Q39,259.9 52,300 Q65,276.6 78,300 Q91,256.8 104,300 Q117,276.2 130,300 Q143,266.3 156,300 Q169,276.4 182,300 Q195,261 208,300 Q221,266.2 234,300 Q247,257 260,300 Q273,263.8 286,300 Q299,257.2 312,300 Q325,261.8 338,300 Q351,259.7 364,300 Q377,256.4 390,300 Q403,265.2 416,300 Q429,274.7 442,300 V304 H0Z" fill="#4f9a55"/><rect x="80" y="214" width="280" height="90" fill="#f6f1e7"/><rect x="80" y="214" width="280" height="7.2" fill="#ddd5c6"/><polygon points="75,214 365,214 348.1,194.2 91.9,194.2" fill="#c4532f"/><rect x="75" y="212" width="290" height="3" fill="#9e3f22"/><rect x="84.4" y="229.5" width="6.8" height="14.2" fill="#3b5578"/><rect x="99.9" y="229.5" width="6.8" height="14.2" fill="#3b5578"/><rect x="115.5" y="229.5" width="6.8" height="14.2" fill="#3b5578"/><rect x="131" y="229.5" width="6.8" height="14.2" fill="#3b5578"/><rect x="146.6" y="229.5" width="6.8" height="14.2" fill="#3b5578"/><rect x="162.1" y="229.5" width="6.8" height="14.2" fill="#3b5578"/><rect x="177.7" y="229.5" width="6.8" height="14.2" fill="#3b5578"/><rect x="193.2" y="229.5" width="6.8" height="14.2" fill="#3b5578"/><rect x="208.8" y="229.5" width="6.8" height="14.2" fill="#3b5578"/><rect x="224.4" y="229.5" width="6.8" height="14.2" fill="#3b5578"/><rect x="239.9" y="229.5" width="6.8" height="14.2" fill="#3b5578"/><rect x="255.5" y="229.5" width="6.8" height="14.2" fill="#3b5578"/><rect x="271" y="229.5" width="6.8" height="14.2" fill="#3b5578"/><rect x="286.6" y="229.5" width="6.8" height="14.2" fill="#3b5578"/><rect x="302.1" y="229.5" width="6.8" height="14.2" fill="#3b5578"/><rect x="317.7" y="229.5" width="6.8" height="14.2" fill="#3b5578"/><rect x="333.2" y="229.5" width="6.8" height="14.2" fill="#3b5578"/><rect x="348.8" y="229.5" width="6.8" height="14.2" fill="#3b5578"/><rect x="84.4" y="255.3" width="6.8" height="14.2" fill="#3b5578"/><rect x="99.9" y="255.3" width="6.8" height="14.2" fill="#3b5578"/><rect x="115.5" y="255.3" width="6.8" height="14.2" fill="#3b5578"/><rect x="131" y="255.3" width="6.8" height="14.2" fill="#3b5578"/><rect x="146.6" y="255.3" width="6.8" height="14.2" fill="#3b5578"/><rect x="162.1" y="255.3" width="6.8" height="14.2" fill="#3b5578"/><rect x="177.7" y="255.3" width="6.8" height="14.2" fill="#3b5578"/><rect x="193.2" y="255.3" width="6.8" height="14.2" fill="#3b5578"/><rect x="208.8" y="255.3" width="6.8" height="14.2" fill="#3b5578"/><rect x="224.4" y="255.3" width="6.8" height="14.2" fill="#3b5578"/><rect x="239.9" y="255.3" width="6.8" height="14.2" fill="#3b5578"/><rect x="255.5" y="255.3" width="6.8" height="14.2" fill="#3b5578"/><rect x="271" y="255.3" width="6.8" height="14.2" fill="#3b5578"/><rect x="286.6" y="255.3" width="6.8" height="14.2" fill="#3b5578"/><rect x="302.1" y="255.3" width="6.8" height="14.2" fill="#3b5578"/><rect x="317.7" y="255.3" width="6.8" height="14.2" fill="#3b5578"/><rect x="333.2" y="255.3" width="6.8" height="14.2" fill="#3b5578"/><rect x="348.8" y="255.3" width="6.8" height="14.2" fill="#3b5578"/><path d="M84.4,295.2 V284.5 a3.4,3.4 0 0 1 6.8,0 V295.2Z" fill="#ddd5c6"/><path d="M99.9,295.2 V284.5 a3.4,3.4 0 0 1 6.8,0 V295.2Z" fill="#ddd5c6"/><path d="M115.5,295.2 V284.5 a3.4,3.4 0 0 1 6.8,0 V295.2Z" fill="#ddd5c6"/><path d="M131,295.2 V284.5 a3.4,3.4 0 0 1 6.8,0 V295.2Z" fill="#ddd5c6"/><path d="M146.6,295.2 V284.5 a3.4,3.4 0 0 1 6.8,0 V295.2Z" fill="#ddd5c6"/><path d="M162.1,295.2 V284.5 a3.4,3.4 0 0 1 6.8,0 V295.2Z" fill="#ddd5c6"/><path d="M177.7,295.2 V284.5 a3.4,3.4 0 0 1 6.8,0 V295.2Z" fill="#ddd5c6"/><path d="M193.2,295.2 V284.5 a3.4,3.4 0 0 1 6.8,0 V295.2Z" fill="#ddd5c6"/><path d="M208.8,295.2 V284.5 a3.4,3.4 0 0 1 6.8,0 V295.2Z" fill="#ddd5c6"/><path d="M224.4,295.2 V284.5 a3.4,3.4 0 0 1 6.8,0 V295.2Z" fill="#ddd5c6"/><path d="M239.9,295.2 V284.5 a3.4,3.4 0 0 1 6.8,0 V295.2Z" fill="#ddd5c6"/><path d="M255.5,295.2 V284.5 a3.4,3.4 0 0 1 6.8,0 V295.2Z" fill="#ddd5c6"/><path d="M271,295.2 V284.5 a3.4,3.4 0 0 1 6.8,0 V295.2Z" fill="#ddd5c6"/><path d="M286.6,295.2 V284.5 a3.4,3.4 0 0 1 6.8,0 V295.2Z" fill="#ddd5c6"/><path d="M302.1,295.2 V284.5 a3.4,3.4 0 0 1 6.8,0 V295.2Z" fill="#ddd5c6"/><path d="M317.7,295.2 V284.5 a3.4,3.4 0 0 1 6.8,0 V295.2Z" fill="#ddd5c6"/><path d="M333.2,295.2 V284.5 a3.4,3.4 0 0 1 6.8,0 V295.2Z" fill="#ddd5c6"/><path d="M348.8,295.2 V284.5 a3.4,3.4 0 0 1 6.8,0 V295.2Z" fill="#ddd5c6"/><rect y="300" width="400" height="256" fill="url(#g1)"/><path d="M374,420 Q373.4,255 344.8,90 L349.3,90 Q380.9,255 386,420Z" fill="#8a6a4a"/><path d="M0,0 C27,-24 69,-21 96,15 C66,-3 30,-1.5 0,0Z" fill="#2f8a3f" transform="translate(347,90) rotate(-70)"/><path d="M0,0 C27,-24 69,-21 96,15 C66,-3 30,-1.5 0,0Z" fill="#46a84f" transform="translate(347,90) scale(-1,1) rotate(-64)"/><path d="M0,0 C27,-24 69,-21 96,15 C66,-3 30,-1.5 0,0Z" fill="#46a84f" transform="translate(347,90) rotate(-38)"/><path d="M0,0 C27,-24 69,-21 96,15 C66,-3 30,-1.5 0,0Z" fill="#226b32" transform="translate(347,90) scale(-1,1) rotate(-32)"/><path d="M0,0 C27,-24 69,-21 96,15 C66,-3 30,-1.5 0,0Z" fill="#226b32" transform="translate(347,90) rotate(-8)"/><path d="M0,0 C27,-24 69,-21 96,15 C66,-3 30,-1.5 0,0Z" fill="#2f8a3f" transform="translate(347,90) scale(-1,1) rotate(-2)"/><path d="M0,0 C27,-24 69,-21 96,15 C66,-3 30,-1.5 0,0Z" fill="#2f8a3f" transform="translate(347,90) rotate(22)"/><path d="M0,0 C27,-24 69,-21 96,15 C66,-3 30,-1.5 0,0Z" fill="#46a84f" transform="translate(347,90) scale(-1,1) rotate(28)"/><path d="M0,0 C27,-24 69,-21 96,15 C66,-3 30,-1.5 0,0Z" fill="#46a84f" transform="translate(347,90) rotate(48)"/><path d="M0,0 C27,-24 69,-21 96,15 C66,-3 30,-1.5 0,0Z" fill="#226b32" transform="translate(347,90) scale(-1,1) rotate(54)"/><circle cx="347" cy="93" r="6" fill="#6b4f33"/><g transform="translate(130,470) scale(1.45)"><polyline points="-7,-4 -8,-52" fill="none" stroke="#1f2937" stroke-width="12" stroke-linecap="round" stroke-linejoin="round"/><polyline points="7,-4 8,-52" fill="none" stroke="#1f2937" stroke-width="12" stroke-linecap="round" stroke-linejoin="round"/><rect x="-14" y="-6" width="12" height="6" rx="3" fill="#fff"/><rect x="2" y="-6" width="12" height="6" rx="3" fill="#fff"/><polyline points="-17,-96 -30,-118 -34,-142" fill="none" stroke="#5c3a24" stroke-width="8" stroke-linecap="round" stroke-linejoin="round"/><polyline points="17,-96 30,-118 34,-142" fill="none" stroke="#5c3a24" stroke-width="8" stroke-linecap="round" stroke-linejoin="round"/><path d="M-18,-100 Q0,-106 18,-100 L15,-48 L-15,-48Z" fill="#2563eb"/><rect x="-5" y="-108" width="10" height="8" fill="#5c3a24"/><circle cx="0" cy="-118" r="12" fill="#5c3a24"/><path d="M-12,-120 a12,12 0 0 1 24,0 l-5,-3 -14,0Z" fill="#1b1410"/></g><g transform="translate(330,480) scale(1.5)"><polyline points="-7,-4 -8,-52" fill="none" stroke="#1f2937" stroke-width="12" stroke-linecap="round" stroke-linejoin="round"/><polyline points="7,-4 8,-52" fill="none" stroke="#1f2937" stroke-width="12" stroke-linecap="round" stroke-linejoin="round"/><rect x="-14" y="-6" width="12" height="6" rx="3" fill="#fff"/><rect x="2" y="-6" width="12" height="6" rx="3" fill="#fff"/><polyline points="-17,-96 -22,-70 -20,-52" fill="none" stroke="#6b4029" stroke-width="8" stroke-linecap="round" stroke-linejoin="round"/><polyline points="17,-96 32,-112 36,-136" fill="none" stroke="#6b4029" stroke-width="8" stroke-linecap="round" stroke-linejoin="round"/><path d="M-18,-100 Q0,-106 18,-100 L15,-48 L-15,-48Z" fill="#e04848"/><rect x="-5" y="-108" width="10" height="8" fill="#6b4029"/><circle cx="0" cy="-118" r="12" fill="#6b4029"/><path d="M-12,-120 a12,12 0 0 1 24,0 l-5,-3 -14,0Z" fill="#1b1410"/></g><g transform="translate(230,520) scale(1.75)"><polyline points="-7,-4 -8,-52" fill="none" stroke="#1f2937" stroke-width="12" stroke-linecap="round" stroke-linejoin="round"/><polyline points="7,-4 8,-52" fill="none" stroke="#1f2937" stroke-width="12" stroke-linecap="round" stroke-linejoin="round"/><rect x="-14" y="-6" width="12" height="6" rx="3" fill="#fff"/><rect x="2" y="-6" width="12" height="6" rx="3" fill="#fff"/><polyline points="-17,-96 -30,-118 -34,-142" fill="none" stroke="#7a4a2e" stroke-width="8" stroke-linecap="round" stroke-linejoin="round"/><polyline points="17,-96 30,-118 34,-142" fill="none" stroke="#7a4a2e" stroke-width="8" stroke-linecap="round" stroke-linejoin="round"/><path d="M-18,-100 Q0,-106 18,-100 L15,-48 L-15,-48Z" fill="#ffd21f"/><rect x="-5" y="-108" width="10" height="8" fill="#7a4a2e"/><circle cx="0" cy="-118" r="12" fill="#7a4a2e"/><path d="M-12,-120 a12,12 0 0 1 24,0 l-5,-3 -14,0Z" fill="#1b1410"/></g><ellipse cx="110" cy="560" rx="86.8" ry="10.4" fill="#000" opacity="0.18"/><g transform="translate(40,560) scale(1.4,1.4)"><circle cx="0" cy="-28" r="26" fill="none" stroke="#15171c" stroke-width="5"/><circle cx="0" cy="-28" r="20" fill="none" stroke="#9aa3b2" stroke-width="0.8" stroke-dasharray="2 6"/><circle cx="0" cy="-28" r="3" fill="#9aa3b2"/><circle cx="100" cy="-28" r="26" fill="none" stroke="#15171c" stroke-width="5"/><circle cx="100" cy="-28" r="20" fill="none" stroke="#9aa3b2" stroke-width="0.8" stroke-dasharray="2 6"/><circle cx="100" cy="-28" r="3" fill="#9aa3b2"/><polyline points="0,-28 42,-26 86,-70 100,-28" fill="none" stroke="#f5b800" stroke-width="5" stroke-linecap="round" stroke-linejoin="round"/><polyline points="0,-28 32,-80 42,-26" fill="none" stroke="#f5b800" stroke-width="5" stroke-linecap="round" stroke-linejoin="round"/><polyline points="32,-80 86,-76" fill="none" stroke="#f5b800" stroke-width="5" stroke-linecap="round" stroke-linejoin="round"/><polyline points="86,-76 90,-88 98,-88" fill="none" stroke="#2b2f38" stroke-width="4" stroke-linecap="round" stroke-linejoin="round"/><polyline points="24,-84 40,-84" fill="none" stroke="#111" stroke-width="5" stroke-linecap="round" stroke-linejoin="round"/><circle cx="42" cy="-26" r="7" fill="none" stroke="#2b2f38" stroke-width="3"/></g><ellipse cx="290" cy="566" rx="74.4" ry="8.9" fill="#000" opacity="0.18"/><g transform="translate(230,566) scale(1.2,1.2)"><circle cx="0" cy="-28" r="26" fill="none" stroke="#15171c" stroke-width="5"/><circle cx="0" cy="-28" r="20" fill="none" stroke="#9aa3b2" stroke-width="0.8" stroke-dasharray="2 6"/><circle cx="0" cy="-28" r="3" fill="#9aa3b2"/><circle cx="100" cy="-28" r="26" fill="none" stroke="#15171c" stroke-width="5"/><circle cx="100" cy="-28" r="20" fill="none" stroke="#9aa3b2" stroke-width="0.8" stroke-dasharray="2 6"/><circle cx="100" cy="-28" r="3" fill="#9aa3b2"/><polyline points="0,-28 42,-26 86,-70 100,-28" fill="none" stroke="#111827" stroke-width="5" stroke-linecap="round" stroke-linejoin="round"/><polyline points="0,-28 32,-80 42,-26" fill="none" stroke="#111827" stroke-width="5" stroke-linecap="round" stroke-linejoin="round"/><polyline points="32,-80 86,-76" fill="none" stroke="#111827" stroke-width="5" stroke-linecap="round" stroke-linejoin="round"/><polyline points="86,-76 90,-88 98,-88" fill="none" stroke="#2b2f38" stroke-width="4" stroke-linecap="round" stroke-linejoin="round"/><polyline points="24,-84 40,-84" fill="none" stroke="#111" stroke-width="5" stroke-linecap="round" stroke-linejoin="round"/><circle cx="42" cy="-26" r="7" fill="none" stroke="#2b2f38" stroke-width="3"/></g></svg>